<svg xmlns="http://www.w3.org/2000/svg" data-name="Out line" viewBox="0 0 512 512" width="512" height="512"><path d="M496,296V72a56.06322,56.06322,0,0,0-56-56H136A56.06322,56.06322,0,0,0,80,72v40a64.07239,64.07239,0,0,0-64,64v16a64.07239,64.07239,0,0,0,64,64v40a56.06322,56.06322,0,0,0,56,56H284.68652l53.17188,53.17188A36.73,36.73,0,0,0,364,416h16a20.834,20.834,0,0,1,14.82812,6.14209l7.03028,7.02979A20.83476,20.83476,0,0,1,408,444a36.72692,36.72692,0,0,0,10.82812,26.14209l11.50879,11.50879a36.29326,36.29326,0,1,0,51.32422-51.32861L403.33008,352H440A56.06322,56.06322,0,0,0,496,296ZM283.32324,328.00879a114.80577,114.80577,0,0,1-31.21386-104.58691l7.14306,7.14233c-2.86279,4.576-5.5791,9.71289-5.61865,15.79126-.04785,7.352,3.73926,13.34082,7.081,18.624,1.89844,3.00147,3.69141,5.83594,4.32129,8.21143.627,2.36328.47461,5.707.31348,9.24707-.28516,6.24951-.60742,13.33349,3.083,19.70849,3.59472,6.2085,9.793,9.43262,15.26172,12.27735,3.23046,1.68017,6.28125,3.26709,8.11328,5.09961,4.30761,4.30713,5.23926,7.1084,6.52832,10.98535a41.851,41.851,0,0,0,27.64844,27.6499c3.877,1.28906,6.67871,2.22022,10.98632,6.52832,4.30957,4.3086,5.24121,7.11084,6.53028,10.98828a38.76805,38.76805,0,0,0,10.39843,17.25391c.31421.31409.62842.616.94239.91492l-2.56983,2.56994a21.18346,21.18346,0,0,1-3.10009-2.55615Zm82.84351,54.5105c-.31543-.29383-.62866-.57935-.95288-.90357-4.30957-4.30908-5.24121-7.11084-6.53028-10.98877a41.8586,41.8586,0,0,0-27.65136-27.65136c-3.877-1.28907-6.67774-2.22022-10.98535-6.52832-4.30762-4.30713-5.23926-7.1084-6.52833-10.98536A38.74316,38.74316,0,0,0,303.12109,308.209c-3.57519-3.57519-8.07421-5.915-12.04394-7.98-3.70508-1.92724-7.53516-3.91992-8.79688-6.09912-1.34082-2.31592-1.14062-6.7124-.94726-10.96386.19922-4.37745.42578-9.33936-.832-14.07862-1.25977-4.749-3.918-8.95166-6.26368-12.66015-2.27148-3.59229-4.62109-7.30664-4.60351-9.96875a10.14113,10.14113,0,0,1,1.33057-4.18366l117.73,117.71686ZM253.65625,202.34277a8.00008,8.00008,0,0,0-13.24609,3.12744A130.681,130.681,0,0,0,251.105,312H144a24.0275,24.0275,0,0,1-24-24V80a24.0275,24.0275,0,0,1,24-24H432a24.0275,24.0275,0,0,1,24,24V288a24.0275,24.0275,0,0,1-24,24H363.32568ZM476.293,455.98682a20.29272,20.29272,0,0,1-34.64258,14.35009L430.1416,458.82812A20.8331,20.8331,0,0,1,424,444a36.72692,36.72692,0,0,0-10.82812-26.14209l-7.03028-7.02979A36.73,36.73,0,0,0,380,400h-8.686L400.009,371.30493l70.3396,70.33179A20.16142,20.16142,0,0,1,476.293,455.98682ZM379.32739,328H432a40.04552,40.04552,0,0,0,40-40V80a40.04552,40.04552,0,0,0-40-40H144a40.04552,40.04552,0,0,0-40,40V288a40.04552,40.04552,0,0,0,40,40H261.94922c2.176,2.74854,4.45312,5.42383,6.85376,8H136a40.04552,40.04552,0,0,1-40-40V248a8.00008,8.00008,0,0,0-8-8H80a48.054,48.054,0,0,1-48-48V176a48.054,48.054,0,0,1,48-48h8a8.00008,8.00008,0,0,0,8-8V72a40.04552,40.04552,0,0,1,40-40H440a40.04552,40.04552,0,0,1,40,40V296a40.04552,40.04552,0,0,1-40,40H387.32837Z"/><path d="M88,136H80a40.04552,40.04552,0,0,0-40,40v16a40.04552,40.04552,0,0,0,40,40h8a8.00008,8.00008,0,0,0,8-8V144A8.00008,8.00008,0,0,0,88,136Zm-8,80a24.02718,24.02718,0,0,1-24-24V176a24.02718,24.02718,0,0,1,24-24Z"/><path d="M256,96H209.86914a23.9571,23.9571,0,0,0-36.77783,1.24615A48.0055,48.0055,0,0,0,184,192h14.13086a23.95664,23.95664,0,0,0,35.73828,0H256a8.00008,8.00008,0,0,0,8-8V104A8.00008,8.00008,0,0,0,256,96Zm-8,80h-8v-8H224v8a8,8,0,0,1-16,0v-8H192v8h-8a31.9906,31.9906,0,0,1-16-59.70062V120h16v-8a8,8,0,0,1,16,0v8h16v-8h32Z"/><circle cx="304" cy="144" r="8"/><circle cx="344" cy="144" r="8"/><path d="M448,144a47.96283,47.96283,0,0,0-68.00024-43.61395,47.8119,47.8119,0,0,0-40.00415-.00208,48.00005,48.00005,0,1,0,0,87.232A47.81215,47.81215,0,0,0,380,187.614,47.96263,47.96263,0,0,0,448,144Zm-160,0a31.96844,31.96844,0,0,1,36.03613-31.74017,48.22066,48.22066,0,0,0-5.67627,7.90985,7.99779,7.99779,0,0,0-4.96142,12.34637,47.85216,47.85216,0,0,0,0,22.9679,7.99779,7.99779,0,0,0,4.96142,12.34637,48.22066,48.22066,0,0,0,5.67627,7.90985A31.96844,31.96844,0,0,1,288,144Zm72,32a32,32,0,1,1,4.01855-63.74707,48.334,48.334,0,0,0-5.64257,7.9126,7.997,7.997,0,0,0-4.96509,12.36694,47.30874,47.30874,0,0,0,0,22.93506,7.997,7.997,0,0,0,4.96509,12.36694,48.334,48.334,0,0,0,5.64257,7.9126A32.04643,32.04643,0,0,1,360,176Zm24.00391-59.72382A32.01516,32.01516,0,1,1,368,144,32.041,32.041,0,0,1,384.00391,116.27618Z"/><circle cx="400" cy="128" r="8"/><circle cx="416" cy="144" r="8"/><circle cx="400" cy="160" r="8"/><circle cx="384" cy="144" r="8"/></svg>
